<?xml version="1.0" encoding="utf-8"?>
<!-- Generator: Adobe Illustrator 25.0.0, SVG Export Plug-In . SVG Version: 6.00 Build 0)  -->
<svg version="1.1" id="aa71fc4b-7a51-4648-a108-bf29fcaf0f28"
	 xmlns="http://www.w3.org/2000/svg" xmlns:xlink="http://www.w3.org/1999/xlink" x="0px" y="0px" viewBox="0 0 189.9 48.5"
	 style="enable-background:new 0 0 189.9 48.5;" xml:space="preserve">
<style type="text/css">
	.st0{fill:#55595A;}
</style>
<g>
	<g>
		<g>
			<path class="st0" d="M169.3,17.3c0,0,0.1,0,0.1,0c0.5-1.4,0.6-1.7,1.4-2.9c0.5-0.8,0.8-1.7,0.5-3.2c-0.3-1.4-0.1-2.2,0.5-2.8
				c0,0,0-0.1,0-0.1c-0.7,0.1-2.9,0.8-3,3.9C168.7,15.6,167.2,15.4,169.3,17.3z"/>
			<path class="st0" d="M170.2,18.8c-0.3,1.7-0.6,2.5-0.8,2.8c0,0.1,0,0.1,0.1,0.1c2.4-0.2,2.6-1.8,4.6-5.6c1.6-3,3.1-3.8,3.6-4
				c0,0,0-0.1,0-0.1c-0.7,0-2.7,0-4.1,1.2C171.9,14.6,170.6,16.3,170.2,18.8z"/>
			<path class="st0" d="M172.6,20.5c-0.5,0.7-1.5,1.2-1.9,1.4c-0.1,0-0.1,0.1,0,0.1c0.2,0.1,0.5,0.3,0.7,0.5
				c0.2,0.3,0.6,0.6,0.8,0.8c0.4,0.3,1,0.2,1.1-0.3c0.2-0.7,0.6-1.4,1.3-1.6c1.3-0.3,2.9,1.9,3.3,2.4c0,0,0.1,0,0.1,0
				c-0.1-2.4-1.8-4.2-2.9-4.5C174.1,19.2,173.3,19.6,172.6,20.5z"/>
			<path class="st0" d="M165.2,14.3c0.5,0.3,1.3,0.6,1.9,0.9c0.1,0,0.1,0,0.1-0.1c0.1-0.5,0.5-2.2-0.2-3.2c-0.8-1.1-3-1.4-3.7-2.7
				c0,0-0.1,0-0.1,0C163.2,11.6,163.7,13.3,165.2,14.3z"/>
			<path class="st0" d="M167.6,21.9c0,0,0.1-0.1,0-0.1c-0.2-0.4-1.5-2.6-4.6-2.4c-3.4,0.2-3,3.4-3.9,5.6c0,0,0,0,0,0
				c1.2-0.7,1.7-1.5,2.6-2.9c0.7-1,2.2-0.3,3.4,0.6c0.2,0.2,0.6,0.2,0.8,0C166.4,22.4,166.6,22.1,167.6,21.9z"/>
			<path class="st0" d="M164.3,17.8c2.3,0.4,3.8,3.3,4.1,3.9c0,0,0.1,0.1,0.1,0c0.2-0.1,0.7-0.5,0.7-1.6c0-1.3-0.6-2.6-2.1-3.6
				c-1.5-1-2.8-0.8-4.5-1.7c-1.9-1.1-2.8-2.6-2.9-2.9c0,0-0.1,0-0.1,0c-0.1,0.1-0.2,0.5-0.2,1c0,1.2,1.2,3.6,3,4.4
				C162.9,17.5,163.5,17.7,164.3,17.8z"/>
		</g>
		<g>
			<path class="st0" d="M170.8,35.3l0.1,0.1c0.1,0.1,0.3,0.2,0.6,0.2c0,0,0,0,0.1,0c0.2,0,0.4-0.1,0.5-0.2c0.4-0.4,0.6-0.7,0.8-1.1
				c0-0.1,0.1-0.3,0.1-0.4c0-0.2-0.1-0.3-0.3-0.4c-0.2,0-0.4,0-0.4,0.3c0,0.1,0,0.2-0.1,0.2c0,0.1,0,0.1,0,0.2l0,0
				c0,0.1-0.1,0.2-0.1,0.4c-0.1,0.1-0.1,0.1-0.2,0.1c-0.1,0-0.1-0.1-0.2-0.1c-0.1-0.3-0.3-0.6-0.4-0.9c0-0.1-0.1-0.2-0.1-0.3
				c0,0,0-0.1,0-0.1c0.1,0,0.1,0,0.2,0.1c0,0,0,0,0,0c0.1,0.1,0.2,0.2,0.3,0.1c0.1,0,0.2-0.1,0.3-0.2c0.2-0.2,0.2-0.4,0-0.7
				c-0.1-0.1-0.1-0.2-0.2-0.3c-0.3-0.2-0.5-0.2-0.7,0c-0.4,0.4-0.7,0.7-0.9,1c-0.3,0.4-0.3,0.8,0,1.1
				C170.3,34.8,170.5,35.1,170.8,35.3z"/>
			<path class="st0" d="M170.5,24.3L170.5,24.3c0.4,0.3,0.5,0.5,0.6,0.5c0,0,0,0,0.1,0c0.1,0,0.1,0,0.1-0.1c0.1-0.1,0.3-0.4,0.3-0.5
				c0.1-0.1,0.1-0.3-0.1-0.5c-0.2-0.3-0.5-0.7-0.7-0.8c-0.2-0.1-0.6-0.1-0.9-0.1c-0.1,0-0.2,0.1-0.2,0.3c0,0.1,0,0.3,0.1,0.4
				C169.9,23.7,170.2,24.1,170.5,24.3z"/>
			<path class="st0" d="M167.3,26c0.1,0.1,0.3,0.3,0.5,0.5c0.2,0.2,0.4,0.4,0.5,0.5c0.1,0.1,0.2,0.2,0.3,0.2c0,0-0.1,0,0,0
				c0.1,0,0.3-0.2,0.3-0.2c0.1-0.1,0.4-0.4,0.6-0.7c0.1-0.2,0.3-0.4,0.4-0.5c0.3-0.4,0.1-0.6,0-0.7c0,0-0.1-0.1-0.1-0.1
				c-0.1-0.2-0.6-0.8-0.8-1.1l-0.1-0.1c-0.1-0.1-0.2-0.2-0.3-0.2c-0.1,0-0.2,0.1-0.3,0.2c-0.1,0.1-0.2,0.2-0.4,0.4
				c-0.2,0.3-0.6,0.8-0.8,1C167.1,25.5,167.1,25.8,167.3,26z"/>
			<path class="st0" d="M167.3,31.6c0.2,0.2,0.7,0.8,1,1.1c0.2,0.2,0.4,0.3,0.6,0.3c0.1,0,0.2,0,0.3-0.2c0.1-0.1,0.1-0.1,0.3-0.3
				c0.2-0.3,0.6-0.7,0.8-1c0.4-0.4,0.3-0.6,0.1-0.9c-0.2-0.2-1.1-1.3-1.1-1.3c-0.2-0.3-0.4-0.3-0.5-0.3c-0.2,0-0.4,0.1-0.5,0.3
				c0,0-0.6,1-0.9,1.4C166.9,31.1,167.1,31.4,167.3,31.6C167.3,31.6,167.3,31.6,167.3,31.6z"/>
			<path class="st0" d="M171.6,26.1C171.6,26.1,171.6,26.1,171.6,26.1c0.2,0.2,1.2,1.3,1.5,1.5c0.1,0.1,0.2,0.1,0.3,0.1
				c0,0,0.1,0,0.1,0c0.2,0,0.2-0.1,0.2-0.2c0.1-0.5-0.3-1.3-0.6-1.8c-0.3-0.5-0.7-0.8-0.9-0.6c-0.2,0.1-0.7,0.7-0.7,0.7
				C171.4,25.8,171.5,26,171.6,26.1z"/>
			<path class="st0" d="M167.5,27.8c-0.1-0.1-0.8-0.9-1-1.1c-0.1-0.1-0.3-0.2-0.4-0.2c-0.1,0-0.2,0.1-0.3,0.2c0,0-0.6,0.6-1,1
				c-0.3,0.3-0.3,0.5-0.3,0.7c0,0.2,0.1,0.4,0.2,0.5c0,0,0,0,0,0c0.2,0.2,0.8,0.9,1,1c0.1,0.1,0.2,0.2,0.3,0.2c0,0,0,0,0,0
				c0.2,0,0.3-0.1,0.4-0.2c0.1-0.1,0.4-0.5,0.6-0.8c0.1-0.2,0.3-0.5,0.4-0.6C167.8,28.2,167.7,28.1,167.5,27.8z"/>
			<path class="st0" d="M170.2,29.1c0.2,0.2,0.4,0.5,0.5,0.6c0.1,0.1,0.2,0.2,0.4,0.2c0.1,0,0.3-0.1,0.4-0.2
				c0.1-0.1,0.4-0.5,0.6-0.8c0.1-0.1,0.1-0.2,0.2-0.3l0,0c0.2-0.2,0.4-0.5,0.2-0.7c-0.2-0.2-0.8-1-1.2-1.4l-0.1-0.1
				c-0.1-0.1-0.2-0.2-0.4-0.2c0,0,0,0,0,0c-0.1,0-0.2,0.1-0.3,0.2c-0.2,0.2-0.7,0.8-1,1.1c-0.3,0.4-0.1,0.6,0,0.8
				C169.7,28.6,170,28.9,170.2,29.1z"/>
			<path class="st0" d="M163.8,27.3C163.8,27.3,163.8,27.3,163.8,27.3c0.1,0,0.1,0,0.2,0c0.3,0,0.7-0.3,1-0.7
				c0.4-0.4,0.8-0.6,0.6-0.9l0-0.1c-0.1-0.2-0.3-0.6-0.6-0.6c-0.3,0-0.5,0.4-0.5,0.4c-0.7,1-0.9,1.4-0.8,1.6
				C163.7,27.2,163.8,27.3,163.8,27.3z"/>
			<path class="st0" d="M167.8,23c0,0-0.1-0.1-0.2-0.1c-0.2,0-0.5-0.1-0.8,0.2c-0.4,0.4-1.1,0.9-1.1,1.3c0,0.3,0.5,0.5,0.7,0.5
				c0.1,0,0.3-0.1,0.5-0.3c0.3-0.3,0.6-0.9,0.7-1C167.7,23.4,167.9,23.2,167.8,23z"/>
			<path class="st0" d="M175.2,33.7c0-0.4,0-0.7-0.2-0.9c-0.1-0.1-0.1-0.1-0.2-0.1c-0.2,0-0.5,0.4-0.6,0.6c-0.1,0.2-0.1,0.4,0,0.5
				c0.1,0.3,0.2,0.5,0.5,0.6c0.1,0.1,0.2,0,0.3,0C175.1,34.3,175.2,34.1,175.2,33.7z"/>
			<path class="st0" d="M171.4,38.1c-0.1-0.1-0.3,0-0.4,0.1c-0.3,0.2-0.7,0.6-0.9,0.9c-0.1,0.1-0.2,0.3,0,0.4
				c0.1,0.1,0.4,0.1,0.6,0.1c0.2,0,0.5,0,0.7-0.1c0.4-0.2,0.7-0.7,0.6-0.9C171.9,38.4,171.6,38.2,171.4,38.1z"/>
			<path class="st0" d="M166.6,35.8c0.1-0.1,0.4-0.4,0.6-0.6c0.2-0.2,0.3-0.4,0.4-0.5c0.3-0.3,0.3-0.6,0.1-0.9c0,0,0,0,0,0
				c-0.1-0.1-0.3-0.4-0.5-0.6c-0.2-0.2-0.4-0.5-0.6-0.7c-0.2-0.2-0.3-0.3-0.5-0.3c-0.2,0-0.3,0.2-0.4,0.4c0,0-0.7,1-1,1.4
				c-0.2,0.4-0.1,0.5,0.1,0.7c0.2,0.1,1,0.9,1.1,1c0.2,0.2,0.3,0.2,0.4,0.2C166.4,35.9,166.5,35.9,166.6,35.8z"/>
			<path class="st0" d="M167.9,39c-0.1-0.1-0.4-0.4-1-0.7l-0.2-0.1c0,0-0.1,0-0.2,0c-0.3,0.1-0.5,0.6-0.6,0.8c0,0.1,0,0.1,0.1,0.2
				c0.1,0.1,0.4,0.3,0.8,0.3c0.4,0,1.1,0,1.2-0.3C168,39.2,168,39.1,167.9,39z"/>
			<path class="st0" d="M170.4,36.5C170.4,36.5,170.4,36.5,170.4,36.5c-0.1-0.1-0.3-0.4-0.5-0.6c-0.2-0.2-0.4-0.4-0.5-0.7
				c-0.2-0.2-0.3-0.3-0.5-0.3c-0.2,0-0.4,0.2-0.6,0.4c0,0-0.7,0.9-0.9,1.4c-0.2,0.4-0.1,0.5,0.1,0.7c0,0,0.7,0.7,0.8,0.8
				c0.4,0.4,0.6,0.4,0.7,0.4c0.1,0,0.2,0,0.3-0.1c0.1-0.1,0.3-0.3,0.5-0.6c0.2-0.2,0.3-0.4,0.4-0.5
				C170.5,37.1,170.6,36.8,170.4,36.5z"/>
			<path class="st0" d="M173.8,35.1c-0.1-0.1-0.2,0-0.3,0c-0.2,0.2-0.4,0.5-0.7,0.9c-0.2,0.2-0.7,0.8-0.8,0.8
				c-0.1,0.1-0.1,0.2-0.1,0.3c0,0,0,0.1,0.1,0.1c0,0,0.3,0.3,0.7,0.3c0.1,0,0.2,0,0.3,0c0.2,0,0.3-0.1,0.7-0.4
				c0.1-0.1,0.5-0.6,0.5-0.7c0.2-0.2,0.1-0.6,0.1-0.8C174.2,35.4,173.8,35.1,173.8,35.1z"/>
			<path class="st0" d="M163.8,38.1c0.1,0.2,0.6,0.5,0.9,0.5c0.1,0,0.2,0,0.3-0.1c0.1-0.1,0.3-0.2,0.5-0.6c0.2-0.4,0-0.6-0.3-0.9
				l-0.1-0.1c0,0,0,0,0,0c-0.1-0.1-0.3-0.2-0.4-0.4c-0.1-0.1-0.3-0.3-0.4-0.4c-0.1-0.1-0.3-0.2-0.4-0.2c-0.2,0-0.3,0.2-0.4,0.4
				c0,0,0,0,0,0.1c-0.1,0.1-0.2,0.4-0.2,0.7C163.4,37.4,163.6,37.8,163.8,38.1"/>
			<path class="st0" d="M162.4,33.6c-0.1-0.1-0.2,0-0.2,0c-0.1,0.1-0.1,0.4,0,0.5c0,0,0.1,0.1,0.1,0.3c0.4,1.1,0.4,1.2,0.5,1.2
				c0,0,0,0,0,0c0.1,0,0.1,0,0.1,0c0.1-0.1,0.3-0.4,0.3-0.5c0.1-0.1,0.1-0.2,0.1-0.4C163.4,34.1,162.9,33.9,162.4,33.6z"/>
			<path class="st0" d="M162.4,32.1c0.1,0.2,0.2,0.4,0.5,0.6c0.1,0.1,0.6,0.5,0.9,0.5c0.2,0,0.2-0.1,0.4-0.2
				c0.1-0.1,0.4-0.5,0.7-0.9c0.2-0.2,0.3-0.4,0.4-0.5c0.3-0.3,0.1-0.5,0-0.8l-0.1,0l0,0l0.1,0c-0.1-0.1-0.3-0.4-0.6-0.7
				c-0.3-0.3-0.5-0.6-0.6-0.8c-0.1-0.2-0.2-0.3-0.4-0.3c-0.1,0-0.3,0.1-0.4,0.3c-0.2,0.2-0.9,1.3-0.9,1.8
				C162.3,31.5,162.3,31.9,162.4,32.1z"/>
			<path class="st0" d="M173.1,29.2c-0.1,0.2-0.3,0.4-0.5,0.7c-0.2,0.3-0.5,0.6-0.6,0.7l0,0c-0.1,0.2-0.3,0.4,0,0.7
				c0.1,0.1,0.2,0.2,0.4,0.4c0.3,0.3,0.6,0.6,0.7,0.7c0.1,0.1,0.2,0.1,0.3,0.1c0.1,0,0.2-0.1,0.4-0.2c0.1-0.1,0.9-0.8,0.9-1.2
				c0.1-0.2,0-0.5-0.1-0.9c-0.1-0.3-0.8-1.1-0.8-1.2c-0.1-0.1-0.3-0.2-0.4-0.2C173.4,28.9,173.3,29,173.1,29.2z"/>
		</g>
	</g>
	<g>
		<path class="st0" d="M80,13.3l-0.5,0c-0.1,0-0.2,0-0.3,0l-2.6,0.6c-0.2,0-0.2,0.2-0.2,0.4c0,0,0.5,1.8,0.6,2.2c0,0.1,0,0.1,0,0.2
			l0,21.7c0,0.1,0.1,0.3,0.3,0.3h10.7c0.1,0,0.2-0.1,0.3-0.2l0.6-2.3c0.1-0.2-0.1-0.3-0.3-0.3l-8.1,0.9c-0.1,0-0.1-0.1-0.1-0.1v-23
			C80.2,13.4,80.1,13.3,80,13.3z"/>
		<path class="st0" d="M100,12.9c-4,0-6.9,1-8.7,3c-2,2.1-3.1,5.7-3.1,10.3c0,4.3,1,7.5,3,9.7c1.9,2.1,4.6,3.1,8.2,3.1
			c4,0,6.9-1,8.7-3c2-2.2,3.1-5.8,3.1-10.3c0-4.3-1-7.5-3-9.7C106.4,13.9,103.6,12.9,100,12.9z M107.7,26.1c0,3.1-0.6,6.7-1.6,9.1
			c-0.1,0.3-0.3,0.5-0.6,0.6c-0.9,0.4-2.8,1-5.6,1c-2.8,0-4.7-0.6-5.9-2c-1.6-1.7-2.3-4.7-2.3-9.2c0-3.3,0.6-6.8,1.6-9.1
			c0.1-0.3,0.3-0.5,0.5-0.6c1.2-0.5,3.2-1,5.6-1c2.8,0,4.6,0.6,5.9,2C107,18.7,107.7,21.6,107.7,26.1z"/>
		<path class="st0" d="M70,13.3c-0.1,0-0.2,0-0.3,0l-2.6,0.6c-0.2,0-0.2,0.2-0.2,0.4c0,0,0.5,1.8,0.6,2.2c0,0.1,0,0.1,0,0.2v21.7
			c0,0.1,0.1,0.3,0.3,0.3h2.8c0.1,0,0.3-0.1,0.3-0.3l0-24.8c0-0.1-0.1-0.3-0.3-0.3L70,13.3z"/>
		<path class="st0" d="M51.6,13.3l-2.6,0c-0.1,0-0.2,0-0.3,0l-2.3,0.5c-0.1,0-0.2,0.2-0.2,0.3l0.8,6.8c0,0.1,0,0.1,0,0.2l-0.4,17.2
			c0,0.2,0.1,0.3,0.3,0.3h2.5c0.1,0,0.3-0.1,0.3-0.3v-9.8c0-0.1,0.1-0.1,0.1-0.1h4c0,0,0.1,0,0.1,0.1l5.2,10c0,0.1,0.1,0.1,0.2,0.1
			h3c0.2,0,0.3-0.2,0.2-0.4l-6-10.4c0,0,0-0.1,0-0.1c3.5-1.1,5-3.6,5-7.1c0-2.9-0.8-4.8-2.6-6C57.9,13.9,56.3,13.3,51.6,13.3z
			 M55.6,26c-0.2,0.1-0.3,0.1-0.5,0.1c-1.1,0.1-5.3,0.5-5.3,0.5c-0.1,0-0.1-0.1-0.1-0.1c0-1.3,0-9.8,0-10.9c0-0.1,0-0.1,0.1-0.1
			c0.5-0.1,2.3-0.3,3.3-0.3c3.8,0,5.6,2.2,5.6,5.5C58.6,23.1,58.1,24.8,55.6,26z"/>
		<path class="st0" d="M33.4,13.3l-2.7,0.6c-0.2,0-0.2,0.2-0.2,0.4l0.6,1.7c0,0,0,0.1,0,0.1l-9.3,22.2c0,0.2,0.1,0.3,0.3,0.3l3,0
			c0.1,0,0.2-0.1,0.3-0.2l0.3-2.2c0-0.1,0-0.2,0.1-0.4l2-5.5c0-0.1,0.1-0.1,0.2-0.1h8.8c0.1,0,0.1,0,0.1,0.1l3.3,8.3
			c0,0.1,0.1,0.2,0.2,0.2h3c0.2,0,0.3-0.2,0.2-0.4l-10-24.8C33.7,13.3,33.5,13.3,33.4,13.3z M35.8,28l-7.3,0.4
			c-0.1,0-0.1-0.1-0.1-0.1l3.5-9.8c0-0.1,0.1-0.1,0.1,0l3.8,9.4C36,27.9,35.9,27.9,35.8,28z"/>
		<path class="st0" d="M148.3,13.3l-2.7,0.6c-0.2,0-0.2,0.2-0.2,0.4l0.6,1.7c0,0,0,0.1,0,0.1l-9.3,22.2c0,0.2,0.1,0.3,0.3,0.3l3,0
			c0.1,0,0.2-0.1,0.3-0.2l0.3-2.2c0-0.1,0-0.2,0.1-0.4l2-5.5c0-0.1,0.1-0.1,0.2-0.1h8.8c0.1,0,0.1,0,0.1,0.1l3.3,8.3
			c0,0.1,0.1,0.2,0.2,0.2h3c0.2,0,0.3-0.2,0.2-0.4l-10-24.8C148.5,13.3,148.4,13.3,148.3,13.3z M150.7,28l-7.3,0.4
			c-0.1,0-0.1-0.1-0.1-0.1l3.5-9.8c0-0.1,0.1-0.1,0.1,0l3.8,9.4C150.8,27.9,150.8,27.9,150.7,28z"/>
		<path class="st0" d="M133.9,13.3h-2.8c-0.1,0-0.3,0.1-0.3,0.3v12.6c0,0.1-0.1,0.1-0.1,0.1l-12.2,0.4c-0.1,0-0.1-0.1-0.1-0.1v-13
			c0-0.1-0.1-0.3-0.3-0.3l-0.5,0c-0.1,0-0.2,0-0.3,0l-2.6,0.6c-0.2,0-0.2,0.2-0.2,0.4l0.6,2.2c0,0.1,0,0.1,0,0.2v21.7
			c0,0.1,0.1,0.3,0.3,0.3h2.8c0.1,0,0.3-0.1,0.3-0.3v-9.8c0-0.1,0.1-0.1,0.1-0.1h12.2c0.1,0,0.1,0.1,0.1,0.1v9.8
			c0,0.1,0.1,0.3,0.3,0.3h2.8c0,0,0,0,0,0c0.1,0,0.2-0.1,0.2-0.3v-1.7V13.5C134.2,13.4,134.1,13.3,133.9,13.3z"/>
		<path class="st0" d="M20.7,18.6l-0.1,0.1c-0.1,0.1-0.2,0.1-0.3,0c-0.1-0.1-0.2-0.1-0.3-0.2c0,0,0,0,0,0c-3.2-1.7-5.3-2.7-9.1-3.1
			c-0.1,0-0.2,0-0.3,0c-1.2-0.1-2.4,0-3.6,0.4C6.7,15.9,6.6,16,6.4,16c-0.2,0.1-0.4,0.3-0.5,0.6c-1,2.4-1.6,5.9-1.6,9.2
			c0,4.6,0.7,7.5,2.3,9.2c0,0,0,0,0,0c1.1,1.2,2.8,1.9,5.3,1.9c0.1,0,0.3,0,0.5,0c0,0,0.1,0,0.1,0c0.2,0,0.4,0,0.6,0
			c0,0,0.1,0,0.1,0c2.9-0.2,5.1-1.6,6.2-2.4c0,0,0,0,0,0c0.2-0.2,0.4-0.3,0.6-0.4c0.1,0,0.1-0.1,0.2-0.1c0.1,0,0.1,0,0.2,0.1l0,0
			c0.1,0.1,0.1,0.2,0.1,0.3l-0.7,2.5l-0.2,0.7c0,0.2-0.2,0.3-0.4,0.4c-0.2,0.1-0.6,0.2-1.1,0.3c0,0,0,0,0,0c-1,0.3-2.5,0.6-4,0.8
			c-0.1,0-0.1,0-0.2,0C13.4,39,12.8,39,12.2,39h-0.1c-2.9,0-5.2-0.6-6.9-1.9c0,0,0,0,0,0c-0.4-0.3-0.8-0.6-1.1-1
			C4,36.1,3.9,36,3.8,35.9c-2-2.2-3-5.5-3-9.7c0-4.6,1.1-8.2,3.1-10.3c1.8-2,4.7-3,8.7-3c0.1,0,0.1,0,0.2,0h0.1c0.1,0,0.2,0,0.3,0
			c2.8,0,6.1,1,6.4,1.1c0.2,0.1,0.3,0.2,0.3,0.4l0.7,2.7l0.3,1.3C20.8,18.4,20.8,18.6,20.7,18.6z"/>
	</g>
</g>
</svg>
