<?xml version="1.0" encoding="UTF-8" standalone="no"?>
<!DOCTYPE svg PUBLIC "-//W3C//DTD SVG 1.1//EN" "http://www.w3.org/Graphics/SVG/1.1/DTD/svg11.dtd">
<svg width="100%" height="100%" viewBox="0 0 230 44" version="1.1" xmlns="http://www.w3.org/2000/svg" xmlns:xlink="http://www.w3.org/1999/xlink" xml:space="preserve" xmlns:serif="http://www.serif.com/" style="fill-rule:evenodd;clip-rule:evenodd;stroke-linejoin:round;stroke-miterlimit:2;">
    <g transform="matrix(1,0,0,1,-35.7,-1.55)">
        <g>
            <path d="M108.2,16.4L106.5,17.7C105.6,16.5 104.4,15.5 103.1,14.9C101.8,14.3 100.3,14 98.8,14C97.1,14 95.5,14.4 94,15.2C92.5,16 91.4,17.1 90.6,18.5C89.8,19.9 89.4,21.5 89.4,23.2C89.4,25.8 90.3,28 92.1,29.8C93.9,31.6 96.2,32.4 98.9,32.4C101.9,32.4 104.5,31.2 106.5,28.8L108.2,30.1C107.1,31.5 105.8,32.5 104.2,33.3C102.6,34.1 100.8,34.4 98.8,34.4C95,34.4 92,33.1 89.8,30.6C88,28.7 87,26.1 87,23.1C87,19.9 88.1,17.3 90.3,15.1C92.5,12.9 95.3,11.9 98.7,11.9C100.7,11.9 102.5,12.3 104.2,13.1C105.8,13.9 107.2,15 108.2,16.4Z" style="fill:rgb(85,89,90);fill-rule:nonzero;"/>
            <path d="M122.9,11.9C126.2,11.9 128.9,13 131.1,15.2C133.3,17.4 134.4,20.1 134.4,23.3C134.4,26.5 133.3,29.2 131.1,31.4C128.9,33.6 126.2,34.7 123,34.7C119.8,34.7 117.1,33.6 114.9,31.4C112.7,29.2 111.6,26.5 111.6,23.4C111.6,21.3 112.1,19.4 113.1,17.6C114.1,15.8 115.5,14.4 117.2,13.4C119,12.4 120.8,11.9 122.9,11.9ZM123,14C121.4,14 119.9,14.4 118.4,15.3C117,16.1 115.8,17.3 115,18.7C114.2,20.1 113.8,21.7 113.8,23.4C113.8,26 114.7,28.1 116.5,29.9C118.3,31.7 120.4,32.6 122.9,32.6C124.6,32.6 126.1,32.2 127.6,31.4C129,30.6 130.1,29.5 130.9,28.1C131.7,26.7 132.1,25.1 132.1,23.4C132.1,21.7 131.7,20.1 130.9,18.7C130.1,17.3 129,16.2 127.5,15.4C126.1,14.4 124.6,14 123,14Z" style="fill:rgb(85,89,90);fill-rule:nonzero;"/>
            <path d="M137.8,34.1L140.9,12.4L141.3,12.4L150.1,30.2L158.8,12.4L159.1,12.4L162.2,34.1L160.1,34.1L158,18.6L150.3,34.1L149.7,34.1L142,18.5L139.9,34.1L137.8,34.1Z" style="fill:rgb(85,89,90);fill-rule:nonzero;"/>
            <path d="M166.4,12.4L170.7,12.4C173.2,12.4 174.8,12.5 175.7,12.7C176.9,13 177.9,13.6 178.7,14.6C179.5,15.5 179.9,16.7 179.9,18.2C179.9,19.6 179.5,20.8 178.8,21.8C178,22.7 177,23.4 175.6,23.7C174.6,23.9 172.8,24.1 170.1,24.1L168.6,24.1L168.6,34.2L166.4,34.2L166.4,12.4ZM168.6,14.4L168.6,21.8L172.3,21.8C173.8,21.8 174.9,21.7 175.6,21.4C176.3,21.1 176.8,20.7 177.2,20.1C177.6,19.5 177.8,18.8 177.8,18.1C177.8,17.4 177.6,16.7 177.2,16.1C176.8,15.5 176.3,15.1 175.6,14.8C175,14.5 173.9,14.4 172.4,14.4L168.6,14.4Z" style="fill:rgb(85,89,90);fill-rule:nonzero;"/>
            <path d="M190.9,12.4L201,34.1L198.7,34.1L195.3,27L186,27L182.6,34.1L180.2,34.1L190.4,12.4L190.9,12.4ZM190.6,17L186.9,24.8L194.3,24.8L190.6,17Z" style="fill:rgb(85,89,90);fill-rule:nonzero;"/>
            <path d="M204.3,34.1L204.3,12.4L204.8,12.4L219.2,29L219.2,12.4L221.3,12.4L221.3,34.1L220.8,34.1L206.5,17.7L206.5,34.1L204.3,34.1Z" style="fill:rgb(85,89,90);fill-rule:nonzero;"/>
            <rect x="226.3" y="12.4" width="2.2" height="21.7" style="fill:rgb(85,89,90);fill-rule:nonzero;"/>
            <path d="M233.5,12.4L245.9,12.4L245.9,14.5L235.7,14.5L235.7,21.3L245.9,21.3L245.9,23.4L235.7,23.4L235.7,32L245.9,32L245.9,34.1L233.6,34.1L233.6,12.4L233.5,12.4Z" style="fill:rgb(85,89,90);fill-rule:nonzero;"/>
            <path d="M247.4,30L249.2,28.9C250.5,31.3 252,32.5 253.7,32.5C254.4,32.5 255.1,32.3 255.7,32C256.3,31.7 256.8,31.2 257.2,30.6C257.5,30 257.7,29.4 257.7,28.8C257.7,28.1 257.5,27.4 257,26.7C256.3,25.7 255.1,24.6 253.3,23.2C251.5,21.8 250.4,20.8 249.9,20.2C249.1,19.2 248.8,18.1 248.8,16.9C248.8,16 249,15.1 249.5,14.3C250,13.5 250.6,12.9 251.4,12.5C252.2,12.1 253.1,11.8 254.1,11.8C255.1,11.8 256.1,12.1 257,12.6C257.9,13.1 258.8,14 259.8,15.4L258,16.7C257.2,15.6 256.5,14.9 255.9,14.6C255.3,14.3 254.7,14.1 254,14.1C253.1,14.1 252.4,14.4 251.9,14.9C251.3,15.4 251.1,16.1 251.1,16.9C251.1,17.4 251.2,17.8 251.4,18.3C251.6,18.7 252,19.2 252.5,19.7C252.8,20 253.7,20.7 255.3,21.9C257.2,23.3 258.5,24.5 259.2,25.6C259.9,26.7 260.2,27.8 260.2,28.9C260.2,30.5 259.6,31.8 258.4,33C257.2,34.2 255.8,34.7 254.1,34.7C252.8,34.7 251.6,34.3 250.5,33.6C249.2,32.9 248.3,31.7 247.4,30Z" style="fill:rgb(85,89,90);fill-rule:nonzero;"/>
        </g>
        <g>
            <path d="M49,13.2C48.2,13 46.7,12.9 44.4,12.9L35.7,12.9L35.7,33.5L39.2,33.5L39.2,24.6L43.8,24.6C46.2,24.6 47.9,24.5 48.8,24.3C50.1,24 51.2,23.3 52,22.4C52.8,21.4 53.2,20.2 53.2,18.8C53.2,17.4 52.8,16.1 52,15.2C51.3,14.1 50.3,13.5 49,13.2ZM49.8,18.7C49.8,19.2 49.7,19.6 49.4,20.1C49.1,20.5 48.8,20.8 48.3,21C47.9,21.1 47.2,21.3 45.7,21.3L39.2,21.3L39.2,16.4L45.9,16.4C47.4,16.4 48.1,16.6 48.4,16.7C48.8,16.9 49.1,17.1 49.4,17.5C49.7,17.8 49.8,18.2 49.8,18.7Z" style="fill:rgb(85,89,90);fill-rule:nonzero;"/>
            <path d="M79.3,12.8L75.7,12.8L75.6,13.4L72.3,24.9L67.7,13.3L67.5,12.8L66.1,12.8L65.9,13.3L61.2,24.9L58,13.4L57.8,12.8L54.3,12.8L54.5,13.8L59.9,32.9L60.1,33.4L61.6,33.4L66.8,20.4L71.7,32.9L71.9,33.4L73.4,33.4L73.5,32.9L79,13.8L79.3,12.8Z" style="fill:rgb(85,89,90);fill-rule:nonzero;"/>
        </g>
    </g>
</svg>
