<?xml version="1.0" encoding="utf-8"?>
<!-- Generator: Adobe Illustrator 25.0.0, SVG Export Plug-In . SVG Version: 6.00 Build 0)  -->
<svg version="1.1" id="Layer_1" xmlns="http://www.w3.org/2000/svg" xmlns:xlink="http://www.w3.org/1999/xlink" x="0px" y="0px"
	 viewBox="0 0 153 46" style="enable-background:new 0 0 153 46;" xml:space="preserve">
<style type="text/css">
	.st0{fill-rule:evenodd;clip-rule:evenodd;fill:#55595A;}
	.st1{fill:#55595A;}
</style>
<g>
	<path class="st0" d="M75.6,11.6c-0.2,0.2-0.5,0.3-0.8,0.5c-0.9-0.2-1.7-0.5-2.2-1.1c0.2-1.6-1-3.4,0-4.5c0.1-0.1,0.8-0.6,1-0.6
		c0.6,0.1,1.4,0.5,1.7,1C76.1,8.1,75.5,10,75.6,11.6"/>
	<path class="st0" d="M83.5,12.7c-0.4-0.2-0.8-0.4-1.2-0.6c-0.4-0.2-0.8-0.4-1-0.7c0.6-1.3,1.1-2.7,2.2-3.5c0.2-0.1,0.6-0.1,0.8,0
		C85,8.2,86,8.8,86.1,9.4c0,0.7-1,1.3-1.4,1.7c-0.1,0.1-0.2,0.3-0.2,0.5c-0.1,0-0.2,0.1-0.4,0.1C83.9,12,83.8,12.5,83.5,12.7"/>
	<path class="st0" d="M68.8,13.9c-0.1,0.3-0.5,0.3-0.6,0.7c-0.4,0.2-0.8,0.4-1.4,0.4c-1.3,0-2.5-1.1-3.6-1.5
		c-0.3-0.1-0.8-0.1-0.9-0.3c-0.2-0.3-0.2-0.8-0.2-1.1c0.2-0.9,1.3-1.4,1.8-1.9C65.8,11.2,66.9,12.9,68.8,13.9"/>
	<path class="st0" d="M93.6,13.1c0,0.2-0.2,0.3-0.2,0.5c-1.3,0.4-1.5,1.9-1.9,3.2c-0.5,0.4-1.2,0.1-1.8,0.1c-0.3,0-0.6,0.2-0.8,0.2
		c-0.7-0.1-1-1.2-1.4-1.7c-0.1-0.2-0.3-0.3-0.5-0.5c0.1-0.6,0.8-0.8,1.3-1.2c0.3-0.2,0.5-0.6,0.8-0.8C90.5,12,92.1,12.9,93.6,13.1"
		/>
	<path class="st0" d="M78.4,13.5c1.5,0.3,2.6,1.3,3.8,1.9c0.3,0.1,0.6,0.2,0.9,0.4c0.4,0.2,0.7,0.5,1,0.7c0.9,0.7,2.2,1.5,2.9,2.4
		c0.4,0.5,1,1.3,1.1,2c0,0.4-0.3,1.1-0.4,1.7c-0.3,1.2-0.5,2.3-0.9,3.3c-0.2,0.5-0.5,1-0.7,1.4c-0.2,0.3-0.6,0.5-0.9,0.7
		c-1.7,1.5-3.4,2.9-5.4,4.1c-0.3,0.2-0.7,0.5-1,0.6c-0.5,0.2-1,0.3-1.5,0.5c-1.4,0.4-3,1-4.6,1.2c-2.4,0.4-4.5,0-6.2-1.2
		c-1.2-1.6-2.2-3.5-2.4-6.3c0-0.4-0.1-0.8,0-1.2c0-0.3,0.3-0.7,0.5-1.1c0.5-1.1,0.8-2.3,1.2-3.4c0.6-1.5,1.5-2.8,2.8-3.4
		c0.5-0.3,1.1-0.4,1.7-0.7c1-0.5,2-1,3.2-1.4c0.6-0.2,1.4-0.5,1.9-0.4c0.5,0.1,1.3,0.7,1.7,1c1.6,1.1,3,2.3,4,3.9
		c-0.3,0.8-0.2,1.7-0.2,2.8c0,0.5,0,1.2-0.2,1.5c-0.2,0.4-0.8,0.6-1.2,0.8c-1,0.4-2,0.6-3.3,0.7c-0.6,0.1-1.3,0.2-1.7,0.2
		C73.5,26,72.7,25,72.3,24c-0.3-0.5-0.7-1.1-0.7-1.6c0-0.6,0.5-1.1,0.8-1.5c0.2-0.3,0.8-1,1.3-1c1.1,0,1.2,1.5,1.6,2.2
		c1.4,0.2,2.4-0.3,3.1-0.9c-0.7-1.2-1.7-2-2.8-2.8c-0.4-0.2-0.8-0.6-1.2-0.7c-0.8-0.1-1.7,0.4-2.1,0.7c-1.4,1-2.2,2.4-3.3,3.8
		c-0.2,0.3-0.5,0.6-0.6,0.8c-0.2,0.5-0.2,1.4-0.2,2c0,1.1,0.2,2,0.6,2.6c0.3,0.5,0.9,0.9,1.4,1.2c1,0.7,2.3,1.4,3.9,1.4
		c0.8,0,1.6-0.1,2.4-0.2c2.9-0.4,5.2-1.9,6.4-4.1c0.1-0.3,0.3-0.6,0.4-0.9c0.4-0.8,1-1.8,1.1-2.8c0.1-0.5,0-1-0.1-1.4
		c-0.1-0.3-0.5-0.6-0.8-0.9c-1.4-1.4-2.6-3.1-3.9-4.5c-0.5-0.5-1.3-1-1.4-2C78.3,13.6,78.3,13.5,78.4,13.5"/>
	<path class="st0" d="M64.1,18.9c0,0.4-0.3,0.7-0.5,1c-0.2,0.3-0.4,0.7-0.6,1c-1.6-0.2-3.4-0.1-4.5,0.5c-0.4-0.2-0.9-0.5-1.3-0.9
		c-0.6-0.4-1.4-0.8-1.1-1.9c0.6-0.4,1.4-0.2,2-0.3c0.3-0.1,0.5-0.3,0.7-0.3c1.3-0.5,2.6,0.1,3.6,0.5c0.2,0.1,0.5,0.3,0.7,0.4
		C63.4,18.8,63.8,18.5,64.1,18.9"/>
	<path class="st0" d="M95.8,21.9c-0.4,0.8,0,2-0.7,2.4c-0.2,0.1-0.4,0-0.7,0.1c-0.2,0.1-0.4,0.3-0.6,0.3c-0.7,0.1-1.4-0.2-2.2-0.2
		c-0.6,0-1.1,0.3-1.6,0.3c-0.3-1.2,0.3-2.1,0.7-3c1-0.4,2.4,0,3.5,0c0.4,0,0.8-0.3,1.2-0.3c0.1,0,0-0.1,0.1,0
		C95.6,21.6,95.6,21.8,95.8,21.9"/>
	<path class="st0" d="M62,26.2c-0.1,1.3,0.6,1.8,0.6,3.1c-1.6,0.6-2.8,1.5-4.9,1.5c-0.2-0.2-0.4-0.6-0.6-0.9c-0.2-0.3-0.5-0.7-0.5-1
		c0-0.6,0.7-0.8,1-1.3C58.9,27,60.1,26,62,26.2"/>
	<path class="st0" d="M84.9,32.4c-0.2-1.1,0.5-1.8,1-2.2c0.9,0,1.7,0.1,2.4,0.2c0.7,0.1,1.6,0.4,1.9,0.9c0.2,0.4,0.2,1.1,0.5,1.6
		c0.1,0.3,0.5,0.5,0.5,0.7c0.2,0.9-1.1,1.7-1.5,2.1C87.3,35.5,87,33.1,84.9,32.4"/>
	<path class="st1" d="M34.3,17.2c1.3-0.9,2.8-1.4,4.4-1.4c0.2,0,0.4,0,0.6-0.1v-4.5c-0.2,0-0.4-0.1-0.6-0.1c-3.4,0-6.3,1.2-8.6,3.5
		c-2.4,2.4-3.5,5.2-3.5,8.6s1.2,6.3,3.5,8.6c2.4,2.4,5.2,3.5,8.6,3.5c0.2,0,0.4,0,0.6-0.1v-4.5c-0.2,0-0.4-0.1-0.6-0.1
		c-1.7,0-3.2-0.5-4.5-1.5c-1.4-1-2.3-2.3-2.7-3.9h7.3c0.2,0,0.4,0,0.6-0.1V21c-0.2,0-0.4-0.1-0.6-0.1h-7.2
		C32.1,19.4,33,18.2,34.3,17.2"/>
	<path class="st1" d="M123.7,11.2c3.4,0,6.3,1.2,8.6,3.5c2.4,2.4,3.5,5.2,3.5,8.6c0,3.4-1.2,6.3-3.5,8.6c-2.4,2.4-5.2,3.5-8.6,3.5
		c-3.4,0-6.3-1.2-8.6-3.5c-2.4-2.4-3.5-5.2-3.5-8.6c0-3.4,1.2-6.3,3.5-8.6C117.4,12.4,120.3,11.2,123.7,11.2 M123.7,15.8
		c-2.2,0-4,0.7-5.4,2.2c-1.5,1.5-2.2,3.3-2.2,5.4c0,2.1,0.7,3.9,2.2,5.4c1.5,1.5,3.3,2.2,5.4,2.2c2.1,0,3.9-0.7,5.4-2.2
		c1.5-1.5,2.2-3.3,2.2-5.4c0-2.1-0.7-3.9-2.2-5.4C127.6,16.6,125.8,15.8,123.7,15.8"/>
	<path class="st1" d="M21.2,14.7c-2.4-2.3-5.2-3.5-8.7-3.5H5v24.2c0,0,4.1,0.3,7.4,0.1c0,0,0.1,0,0.1,0c3.4,0,6.3-1.2,8.7-3.5
		c2.3-2.3,3.5-5.2,3.5-8.7C24.7,20,23.5,17.1,21.2,14.7 M17.9,28.8c-0.9,0.9-1.8,1.5-2.9,1.8c-1.1,0.2-3.3,0.5-5.2,0.3V15.8h2.8
		c2.2,0,4,0.7,5.4,2.2c1.5,1.5,2.2,3.3,2.2,5.4C20.1,25.5,19.4,27.3,17.9,28.8"/>
	<path class="st1" d="M113.1,11.2c-1.1,0-2.1,0-3.2,0c-1.6,0-3.2,0.1-4.6,1.1c-0.4,0.2-0.7,0.5-1,0.8c-1.3,1.3-1.9,2.9-1.9,4.7l0,11
		c0,0.6-0.2,1.1-0.6,1.5c-0.7,0.7-1.7,0.6-2.7,0.6c-0.9,0-1.8,0-2.8,0h-0.7v4.6c0.5,0,1.1,0,1.6,0c0.9,0,1.8,0,2.6,0
		c0.8,0,1.5,0,2.3-0.3c0.7-0.2,1.3-0.5,1.9-0.9c0.3-0.2,0.6-0.5,0.9-0.8c1.3-1.3,1.9-2.9,1.9-4.7l0-11c0-0.6,0.2-1.1,0.6-1.5
		c0.7-0.7,1.7-0.6,2.6-0.6c0.8,0,1.6,0,2.3,0c0,0,0.6,0,0.6,0V11.2z"/>
	<path class="st1" d="M50.1,30.9c-0.8,0-1.4-0.3-1.9-0.8c-0.5-0.5-0.8-1.2-0.8-2V11.3h-4.6v16.9c0,2.1,0.7,3.8,2.1,5.2
		c1.4,1.4,3,2.1,5,2.1v0H50c0,0,0,0,0.1,0h1.5c0,0,0.1,0,0.1,0H55v-4.6H50.1z"/>
	<path class="st1" d="M145.6,30.9c-0.8,0-1.4-0.3-1.9-0.8c-0.5-0.5-0.8-1.2-0.8-2V11.3h-4.6v16.9c0,2.1,0.7,3.8,2.1,5.2
		c1.4,1.4,3,2.1,5,2.1v0h0.2c0,0,0,0,0.1,0h1.5c0,0,0.1,0,0.1,0h3.3v-4.6H145.6z"/>
</g>
</svg>
